<?xml version="1.0" encoding="UTF-8"?>
<!DOCTYPE svg PUBLIC "-//W3C//DTD SVG 1.1//EN" "http://www.w3.org/Graphics/SVG/1.1/DTD/svg11.dtd">
<svg xmlns="http://www.w3.org/2000/svg" version="1.1" width="500px" height="500px" style="shape-rendering:geometricPrecision; text-rendering:geometricPrecision; image-rendering:optimizeQuality; fill-rule:evenodd; clip-rule:evenodd" xmlns:xlink="http://www.w3.org/1999/xlink">
<g><path style="opacity:1" fill="#fefefe" d="M -0.5,-0.5 C 166.167,-0.5 332.833,-0.5 499.5,-0.5C 499.5,166.167 499.5,332.833 499.5,499.5C 332.833,499.5 166.167,499.5 -0.5,499.5C -0.5,332.833 -0.5,166.167 -0.5,-0.5 Z"/></g>
<g><path style="opacity:1" fill="#ffb923" d="M 245.5,161.5 C 269.829,159.333 292.162,164.833 312.5,178C 317.722,182.719 322.388,187.885 326.5,193.5C 318.587,208.328 310.42,222.995 302,237.5C 293.786,223.575 285.953,209.408 278.5,195C 267.505,194.5 256.505,194.333 245.5,194.5C 245.667,217.836 245.5,241.169 245,264.5C 236.53,241.422 227.863,218.422 219,195.5C 209.56,194.845 200.06,194.179 190.5,193.5C 204.465,175.35 222.798,164.683 245.5,161.5 Z"/></g>
<g><path style="opacity:1" fill="#3b4a3e" d="M 188.5,199.5 C 197.525,199.168 206.525,199.502 215.5,200.5C 227.41,230.98 238.743,261.647 249.5,292.5C 241.14,292.831 232.807,292.498 224.5,291.5C 222.397,286.356 220.397,281.189 218.5,276C 207.5,275.333 196.5,275.333 185.5,276C 183.371,281.096 181.371,286.263 179.5,291.5C 170.853,292.665 162.186,292.832 153.5,292C 165.463,261.276 177.13,230.443 188.5,199.5 Z"/></g>
<g><path style="opacity:1" fill="#3b4a3e" d="M 330.5,292.5 C 330.833,275.487 330.499,258.487 329.5,241.5C 328.893,241.624 328.56,241.957 328.5,242.5C 323.266,252.633 317.766,262.633 312,272.5C 305.333,273.833 298.667,273.833 292,272.5C 286.234,262.633 280.734,252.633 275.5,242.5C 275.44,241.957 275.107,241.624 274.5,241.5C 273.501,258.487 273.167,275.487 273.5,292.5C 267.463,292.829 261.463,292.496 255.5,291.5C 253.722,287.61 252.222,283.61 251,279.5C 250.5,252.835 250.333,226.169 250.5,199.5C 258.84,199.334 267.173,199.5 275.5,200C 284.46,216.087 293.294,232.253 302,248.5C 310.706,232.253 319.54,216.087 328.5,200C 336.827,199.5 345.16,199.334 353.5,199.5C 353.5,230.5 353.5,261.5 353.5,292.5C 345.833,292.5 338.167,292.5 330.5,292.5 Z"/></g>
<g><path style="opacity:1" fill="#f6f5f3" d="M 201.5,228.5 C 205.389,237.968 209.055,247.635 212.5,257.5C 205.5,258.833 198.5,258.833 191.5,257.5C 194.842,247.805 198.176,238.138 201.5,228.5 Z"/></g>
<g><path style="opacity:1" fill="#6e7970" d="M 275.5,242.5 C 274.833,259.167 274.167,275.833 273.5,292.5C 273.167,275.487 273.501,258.487 274.5,241.5C 275.107,241.624 275.44,241.957 275.5,242.5 Z"/></g>
<g><path style="opacity:1" fill="#6e7970" d="M 328.5,242.5 C 328.56,241.957 328.893,241.624 329.5,241.5C 330.499,258.487 330.833,275.487 330.5,292.5C 329.833,275.833 329.167,259.167 328.5,242.5 Z"/></g>
<g><path style="opacity:1" fill="#ffbd34" d="M 201.5,243.5 C 202.91,246.542 204.243,249.709 205.5,253C 203.098,253.814 200.765,253.647 198.5,252.5C 199.705,249.55 200.705,246.55 201.5,243.5 Z"/></g>
<g><path style="opacity:1" fill="#fef0cf" d="M 280.5,261.5 C 279.833,273.5 279.167,285.5 278.5,297.5C 278.168,285.149 278.501,272.815 279.5,260.5C 280.107,260.624 280.44,260.957 280.5,261.5 Z"/></g>
<g><path style="opacity:1" fill="#fef0cf" d="M 323.5,261.5 C 323.56,260.957 323.893,260.624 324.5,260.5C 325.499,272.815 325.832,285.149 325.5,297.5C 324.833,285.5 324.167,273.5 323.5,261.5 Z"/></g>
<g><path style="opacity:1" fill="#ffb922" d="M 280.5,261.5 C 283.22,267.271 286.22,272.938 289.5,278.5C 297.833,279.833 306.167,279.833 314.5,278.5C 317.78,272.938 320.78,267.271 323.5,261.5C 324.167,273.5 324.833,285.5 325.5,297.5C 327.199,297.34 328.866,297.506 330.5,298C 318.657,319.777 300.324,332.444 275.5,336C 251.193,340.061 228.526,335.727 207.5,323C 197.313,316.152 190.146,306.985 186,295.5C 185.164,290.68 185.998,286.18 188.5,282C 197.518,281.168 206.518,281.335 215.5,282.5C 217.376,287.461 219.043,292.461 220.5,297.5C 239.833,297.5 259.167,297.5 278.5,297.5C 279.167,285.5 279.833,273.5 280.5,261.5 Z"/></g>
</svg>
