<svg version="1.1" xmlns="http://www.w3.org/2000/svg" xmlns:xlink="http://www.w3.org/1999/xlink" width="182" height="176" viewBox="0,0,256,247.54688">
	<g fill="none" fill-rule="nonzero" stroke="#ffb921" stroke-width="1.31237" stroke-linecap="butt" stroke-linejoin="miter" stroke-miterlimit="10" stroke-dasharray="" stroke-dashoffset="0" font-family="none" font-weight="none" font-size="none" text-anchor="none" style="mix-blend-mode: normal">
		<g transform="translate(0.1178,0.08695) scale(1.40659,1.40659)">
			<path d="M13.4622,90.0773c-0.0034,0.1509 -0.0658,0.2944 -0.1737,0.3998c-0.1079,0.1055 -0.2529,0.1645 -0.4038,0.1645h-11.02388c-0.14967,0 -0.29323,-0.0594 -0.39906,-0.1653c-0.10583,-0.1058 -0.16525,-0.2493 -0.16525,-0.399c-0.00004,-0.1509 0.05898,-0.2958 0.16445,-0.4038c0.10547,-0.1079 0.249,-0.1702 0.39986,-0.1737h11.02388c0.1532,0 0.3001,0.0609 0.4084,0.1692c0.1083,0.1083 0.1691,0.2551 0.1691,0.4083z">
			</path>
			<path d="M14.9715,103.118c-0.0013,0.133 -0.0494,0.261 -0.1358,0.362c-0.0864,0.101 -0.2056,0.168 -0.3366,0.189l-10.85338,1.917c-0.07327,0.013 -0.14844,0.011 -0.22116,-0.005c-0.07272,-0.016 -0.14154,-0.046 -0.20253,-0.089c-0.061,-0.042 -0.11294,-0.097 -0.15284,-0.159c-0.03989,-0.063 -0.06698,-0.133 -0.07966,-0.207c-0.01514,-0.074 -0.01517,-0.151 -0.00012,-0.225c0.01506,-0.074 0.04493,-0.144 0.08779,-0.207c0.04287,-0.062 0.09783,-0.116 0.16169,-0.156c0.06386,-0.041 0.13528,-0.069 0.20998,-0.081l10.85333,-1.903c0.0734,-0.015 0.1492,-0.015 0.2226,0c0.0734,0.015 0.143,0.045 0.2044,0.088c0.0614,0.043 0.1134,0.098 0.1528,0.162c0.0394,0.064 0.0654,0.135 0.0764,0.209z">
			</path>
			<path d="M18.7207,115.67c-0.001,0.118 -0.038,0.233 -0.106,0.329c-0.068,0.096 -0.1638,0.169 -0.2746,0.209l-10.35462,3.767c-0.14277,0.051 -0.29985,0.044 -0.43735,-0.02c-0.1375,-0.064 -0.24439,-0.179 -0.29757,-0.321c-0.04757,-0.143 -0.03872,-0.299 0.02471,-0.436c0.06343,-0.136 0.17665,-0.243 0.31652,-0.299l10.36771,-3.767c0.0698,-0.025 0.1439,-0.036 0.2179,-0.032c0.0741,0.003 0.1467,0.022 0.2137,0.053c0.0671,0.032 0.1272,0.077 0.177,0.132c0.0498,0.054 0.0883,0.119 0.1133,0.188z">
			</path>
			<path d="M24.5955,127.39c-0.0002,0.101 -0.027,0.2 -0.0777,0.287c-0.0507,0.088 -0.1234,0.161 -0.211,0.211l-9.541,5.512c-0.1323,0.076 -0.2894,0.097 -0.437,0.058c-0.1476,-0.04 -0.2736,-0.136 -0.3504,-0.268c-0.0728,-0.133 -0.0917,-0.289 -0.0526,-0.436c0.0391,-0.146 0.1331,-0.272 0.2626,-0.351l9.5541,-5.499c0.0637,-0.038 0.1343,-0.063 0.2078,-0.074c0.0734,-0.01 0.1482,-0.007 0.2202,0.012c0.0719,0.018 0.1395,0.05 0.1989,0.095c0.0594,0.044 0.1095,0.1 0.1474,0.164c0.05,0.088 0.0771,0.187 0.0787,0.289z">
			</path>
			<path d="M32.4158,137.916c0.0026,0.082 -0.0138,0.164 -0.048,0.239c-0.0341,0.075 -0.0851,0.142 -0.1489,0.194l-8.4517,7.087c-0.0524,0.053 -0.1148,0.094 -0.1835,0.123c-0.0687,0.029 -0.1423,0.043 -0.2167,0.043c-0.0744,0 -0.1481,-0.014 -0.2168,-0.043c-0.0687,-0.029 -0.131,-0.07 -0.1835,-0.123c-0.0951,-0.116 -0.1414,-0.264 -0.1292,-0.414c0.0122,-0.149 0.0821,-0.288 0.1948,-0.387l8.4517,-7.087c0.0524,-0.052 0.1148,-0.094 0.1835,-0.123c0.0687,-0.028 0.1424,-0.043 0.2168,-0.043c0.0744,0 0.1481,0.015 0.2167,0.043c0.0687,0.029 0.1311,0.071 0.1836,0.123c0.087,0.103 0.1337,0.233 0.1312,0.368z">
			</path>
			<path d="M41.9683,146.964c-0.0023,0.136 -0.0536,0.267 -0.1444,0.368l-7.0736,8.452c-0.1098,0.104 -0.2554,0.162 -0.4069,0.162c-0.1514,0 -0.297,-0.058 -0.4068,-0.162c-0.1127,-0.099 -0.1826,-0.238 -0.1948,-0.387c-0.0122,-0.15 0.0341,-0.298 0.1292,-0.414l7.0868,-8.452c0.1076,-0.103 0.251,-0.161 0.4003,-0.161c0.1492,0 0.2927,0.058 0.4002,0.161c0.0635,0.054 0.115,0.12 0.1511,0.195c0.0362,0.074 0.0563,0.156 0.0589,0.238z">
			</path>
			<path d="M52.9076,154.137c-0.0016,0.101 -0.0287,0.201 -0.0787,0.289l-5.512,9.593c-0.0368,0.065 -0.0861,0.122 -0.145,0.168c-0.0589,0.046 -0.1263,0.079 -0.1983,0.099c-0.0721,0.019 -0.1472,0.024 -0.2212,0.015c-0.074,-0.01 -0.1453,-0.034 -0.2098,-0.072c-0.132,-0.077 -0.2282,-0.203 -0.2676,-0.35c-0.0394,-0.148 -0.0187,-0.305 0.0576,-0.437l5.512,-9.541c0.0367,-0.065 0.086,-0.122 0.145,-0.168c0.0589,-0.046 0.1263,-0.079 0.1983,-0.099c0.072,-0.019 0.1472,-0.024 0.2211,-0.015c0.074,0.01 0.1453,0.034 0.2099,0.072c0.0803,0.046 0.1485,0.11 0.1987,0.188c0.0502,0.077 0.0811,0.166 0.09,0.258z">
			</path>
			<path d="M64.9365,159.34c0.0128,0.065 0.0128,0.132 0,0.197l-3.8321,10.355c-0.0532,0.141 -0.1601,0.257 -0.2976,0.321c-0.1375,0.063 -0.2946,0.071 -0.4373,0.02c-0.0714,-0.025 -0.1371,-0.064 -0.1931,-0.115c-0.056,-0.051 -0.1013,-0.112 -0.1331,-0.181c-0.0318,-0.068 -0.0495,-0.142 -0.0521,-0.218c-0.0026,-0.075 0.01,-0.151 0.037,-0.221l3.7665,-10.355c0.0532,-0.142 0.1601,-0.257 0.2976,-0.321c0.1375,-0.064 0.2946,-0.071 0.4374,-0.02c0.1167,0.034 0.2193,0.105 0.2926,0.202c0.0733,0.096 0.1134,0.214 0.1142,0.336z">
			</path>
			<path d="M77.7114,162.363v0.105l-1.916,10.854c-0.0127,0.073 -0.0397,0.143 -0.0796,0.206c-0.0399,0.063 -0.0919,0.117 -0.1529,0.16c-0.061,0.042 -0.1298,0.073 -0.2025,0.089c-0.0728,0.016 -0.1479,0.017 -0.2212,0.004c-0.0742,-0.011 -0.1453,-0.037 -0.2091,-0.077c-0.0638,-0.039 -0.1189,-0.091 -0.1619,-0.152c-0.043,-0.062 -0.073,-0.131 -0.0882,-0.205c-0.0152,-0.073 -0.0152,-0.149 -0.0001,-0.222l1.9029,-10.854c0.029,-0.137 0.1071,-0.259 0.2196,-0.343c0.1125,-0.084 0.2518,-0.124 0.3917,-0.113c0.1399,0.011 0.2709,0.073 0.3686,0.174c0.0976,0.101 0.1552,0.234 0.1619,0.374z">
			</path>
			<path d="M90.7996,163.139v11.024c0,0.15 -0.0595,0.293 -0.1653,0.399c-0.1058,0.106 -0.2493,0.165 -0.399,0.165c-0.1509,0 -0.2958,-0.059 -0.4038,-0.164c-0.1079,-0.106 -0.1702,-0.249 -0.1737,-0.4v-11.024c0,-0.153 0.0609,-0.3 0.1692,-0.408c0.1083,-0.109 0.2551,-0.169 0.4083,-0.169c0.1508,0.003 0.2944,0.065 0.3998,0.173c0.1055,0.108 0.1645,0.253 0.1645,0.404z">
			</path>
			<path d="M86.5144,1.70405v11.02395c0,0.1531 -0.0608,0.3 -0.1691,0.4083c-0.1082,0.1083 -0.2551,0.1691 -0.4083,0.1691c-0.1508,-0.0034 -0.2944,-0.0658 -0.3998,-0.1737c-0.1055,-0.1079 -0.1646,-0.2528 -0.1645,-0.4037v-11.02395c0,-0.14967 0.0594,-0.29321 0.1653,-0.39904c0.1058,-0.10584 0.2494,-0.16529 0.399,-0.16529c0.1509,-0.00004 0.2958,0.05899 0.4037,0.16446c0.108,0.10547 0.1703,0.24901 0.1737,0.39987z">
			</path>
			<path d="M73.4804,14.2508c-0.0013,0.1327 -0.0494,0.2608 -0.1358,0.3616c-0.0864,0.1008 -0.2056,0.1679 -0.3366,0.1896c-0.0735,0.015 -0.1492,0.015 -0.2227,-0.0002c-0.0734,-0.0152 -0.1429,-0.0452 -0.2043,-0.0882c-0.0615,-0.043 -0.1135,-0.0981 -0.1529,-0.1619c-0.0394,-0.0637 -0.0654,-0.1349 -0.0763,-0.2091l-1.9161,-10.85331c-0.0151,-0.07344 -0.015,-0.14918 0.0002,-0.2226c0.0152,-0.07342 0.0452,-0.14298 0.0882,-0.2044c0.043,-0.06142 0.098,-0.11343 0.1618,-0.15283c0.0638,-0.03941 0.135,-0.0654 0.2091,-0.07636c0.1496,-0.0269 0.3037,0.00623 0.429,0.09222c0.1253,0.08598 0.2117,0.21789 0.2404,0.36712l1.9029,10.85336z">
			</path>
			<path d="M60.9192,18.0087c-0.0028,0.1173 -0.0404,0.2312 -0.1082,0.327c-0.0678,0.0958 -0.1626,0.1693 -0.2724,0.211c-0.1444,0.0503 -0.3029,0.0413 -0.4407,-0.0251c-0.1378,-0.0665 -0.2436,-0.1849 -0.2942,-0.3292l-3.7665,-10.35464c-0.025,-0.07066 -0.0358,-0.14555 -0.0319,-0.2204c0.004,-0.07484 0.0226,-0.14817 0.0549,-0.21581c0.0323,-0.06763 0.0776,-0.12825 0.1333,-0.17838c0.0557,-0.05013 0.1208,-0.0888 0.1914,-0.11379c0.0707,-0.02499 0.1456,-0.03581 0.2204,-0.03186c0.0749,0.00396 0.1482,0.02262 0.2159,0.05491c0.0676,0.0323 0.1282,0.07759 0.1783,0.13331c0.0502,0.05572 0.0888,0.12076 0.1138,0.19142l3.7665,10.35464c0.0257,0.0625 0.039,0.1293 0.0394,0.1969z">
			</path>
			<path d="M49.188,23.8834c0.0015,0.0981 -0.0233,0.1949 -0.0718,0.2802c-0.0484,0.0854 -0.1188,0.1563 -0.2038,0.2053c-0.1324,0.0763 -0.2895,0.097 -0.4371,0.0576c-0.1476,-0.0393 -0.2736,-0.1355 -0.3504,-0.2676l-5.5119,-9.5409c-0.0375,-0.0645 -0.0617,-0.1358 -0.0715,-0.2098c-0.0097,-0.074 -0.0046,-0.1491 0.0149,-0.2212c0.0195,-0.072 0.0532,-0.1394 0.0989,-0.1983c0.0458,-0.059 0.1028,-0.1082 0.1677,-0.145c0.1323,-0.0762 0.2895,-0.097 0.4371,-0.0576c0.1475,0.0393 0.2735,0.1356 0.3503,0.2676l5.512,9.5409c0.0419,0.0906 0.0643,0.189 0.0656,0.2888z">
			</path>
			<path d="M38.664,31.7041c0.0011,0.1164 -0.0337,0.2304 -0.0998,0.3262c-0.0661,0.0958 -0.1602,0.1688 -0.2694,0.2091c-0.1092,0.0402 -0.2283,0.0457 -0.3407,0.0157c-0.1125,-0.0301 -0.2129,-0.0941 -0.2875,-0.1835l-7.0869,-8.4517c-0.0514,-0.0563 -0.0908,-0.1224 -0.1159,-0.1944c-0.0252,-0.072 -0.0354,-0.1483 -0.0302,-0.2244c0.0052,-0.0761 0.0257,-0.1503 0.0604,-0.2182c0.0347,-0.0679 0.0827,-0.1281 0.1413,-0.1769c0.0586,-0.0488 0.1264,-0.0853 0.1995,-0.1071c0.073,-0.0219 0.1498,-0.0287 0.2255,-0.0201c0.0758,0.0086 0.149,0.0325 0.2153,0.0702c0.0663,0.0377 0.1242,0.0884 0.1703,0.1491l7.0868,8.4386c0.0871,0.1024 0.1338,0.233 0.1313,0.3674z">
			</path>
			<path d="M29.6189,41.236c0.0025,0.1344 -0.0442,0.2651 -0.1313,0.3675c-0.047,0.0582 -0.1052,0.1065 -0.1711,0.1421c-0.0658,0.0355 -0.1381,0.0576 -0.2126,0.0649c-0.0745,0.0074 -0.1498,-0.0002 -0.2213,-0.0222c-0.0716,-0.0221 -0.138,-0.0581 -0.1955,-0.1061l-8.4386,-7.0868c-0.0577,-0.0474 -0.1055,-0.1057 -0.1407,-0.1716c-0.0352,-0.0658 -0.0571,-0.138 -0.0644,-0.2123c-0.0073,-0.0744 0.0001,-0.1494 0.0218,-0.2209c0.0217,-0.0715 0.0572,-0.138 0.1046,-0.1957c0.0474,-0.0578 0.1057,-0.1056 0.1716,-0.1408c0.0658,-0.0352 0.138,-0.0571 0.2123,-0.0644c0.0744,-0.0073 0.1494,0.0001 0.2209,0.0218c0.0715,0.0217 0.138,0.0572 0.1957,0.1046l8.4517,7.0868c0.0624,0.0535 0.1123,0.12 0.1463,0.1948c0.034,0.0748 0.0513,0.1562 0.0506,0.2383z">
			</path>
			<path d="M22.458,52.1873c-0.0016,0.1013 -0.0286,0.2006 -0.0787,0.2887c-0.0791,0.1295 -0.2051,0.2235 -0.3517,0.2626c-0.1466,0.0391 -0.3026,0.0203 -0.4357,-0.0526l-9.541,-5.5119c-0.0707,-0.0351 -0.1335,-0.0844 -0.1844,-0.1447c-0.051,-0.0603 -0.089,-0.1304 -0.1118,-0.206c-0.0228,-0.0756 -0.0299,-0.1551 -0.0207,-0.2335c0.0091,-0.0784 0.0342,-0.1541 0.0738,-0.2225c0.0396,-0.0683 0.0927,-0.1278 0.1562,-0.1748c0.0635,-0.0469 0.1359,-0.0804 0.2128,-0.0983c0.0769,-0.0179 0.1566,-0.0198 0.2343,-0.0056c0.0777,0.0141 0.1516,0.0441 0.2173,0.088l9.5409,5.5119c0.0876,0.0506 0.1604,0.1233 0.2111,0.2108c0.0506,0.0875 0.0774,0.1868 0.0776,0.2879z">
			</path>
			<path d="M17.2521,64.2806v0.1968c-0.0532,0.142 -0.16,0.2574 -0.2975,0.3212c-0.1375,0.0638 -0.2946,0.071 -0.4374,0.0201l-10.35461,-3.7666c-0.07982,-0.0183 -0.15483,-0.0534 -0.22004,-0.103c-0.06521,-0.0495 -0.11915,-0.1124 -0.1582,-0.1844c-0.03906,-0.072 -0.06234,-0.1514 -0.06833,-0.2331c-0.00598,-0.0817 0.00547,-0.1637 0.03361,-0.2406c0.02813,-0.0769 0.07231,-0.147 0.1296,-0.2055c0.05728,-0.0586 0.12636,-0.1042 0.20265,-0.134c0.07629,-0.0298 0.15808,-0.043 0.23987,-0.0388c0.08179,0.0042 0.16172,0.0258 0.23453,0.0633l10.35462,3.7665c0.1034,0.0463 0.1909,0.122 0.2515,0.2177c0.0607,0.0957 0.0919,0.2071 0.0897,0.3204z">
			</path>
			<path d="M14.2236,76.982v0.105c-0.0287,0.1492 -0.115,0.2811 -0.2403,0.3671c-0.1253,0.086 -0.2794,0.1191 -0.429,0.0922l-10.85335,-1.9161c-0.14792,-0.0261 -0.2794,-0.1099 -0.36554,-0.2329c-0.08614,-0.1231 -0.11986,-0.2753 -0.09376,-0.4233c0.02611,-0.1479 0.10988,-0.2794 0.23294,-0.3655c0.12306,-0.0862 0.27532,-0.1199 0.42325,-0.0938l10.85336,1.903c0.1309,0.0266 0.249,0.097 0.3348,0.1995c0.0858,0.1025 0.1343,0.2311 0.1376,0.3648z">
			</path>
			<path d="M168.37,90.077c0.004,0.1509 0.066,0.2944 0.174,0.3999c0.108,0.1055 0.253,0.1645 0.404,0.1645h11.023c0.15,0 0.294,-0.0595 0.4,-0.1653c0.105,-0.1059 0.165,-0.2494 0.165,-0.3991c0,-0.1509 -0.059,-0.2958 -0.165,-0.4037c-0.105,-0.1079 -0.249,-0.1703 -0.4,-0.1737h-11.023c-0.154,0 -0.3,0.0608 -0.409,0.1691c-0.108,0.1083 -0.169,0.2552 -0.169,0.4083z">
			</path>
			<path d="M166.861,103.11c0.001,0.133 0.049,0.261 0.136,0.362c0.086,0.101 0.205,0.168 0.336,0.19l10.854,1.916c0.073,0.013 0.148,0.012 0.221,-0.004c0.072,-0.016 0.141,-0.047 0.202,-0.089c0.061,-0.043 0.113,-0.097 0.153,-0.16c0.04,-0.063 0.067,-0.133 0.08,-0.207c0.015,-0.074 0.015,-0.15 0,-0.225c-0.015,-0.074 -0.045,-0.144 -0.088,-0.207c-0.043,-0.062 -0.098,-0.115 -0.162,-0.156c-0.063,-0.041 -0.135,-0.068 -0.21,-0.081l-10.853,-1.903c-0.073,-0.015 -0.149,-0.015 -0.223,0c-0.073,0.015 -0.143,0.046 -0.204,0.089c-0.061,0.043 -0.113,0.098 -0.153,0.161c-0.039,0.064 -0.065,0.135 -0.076,0.209z">
			</path>
			<path d="M163.112,115.67c0.001,0.118 0.038,0.233 0.106,0.329c0.068,0.096 0.163,0.169 0.274,0.209l10.355,3.767c0.143,0.051 0.3,0.044 0.437,-0.02c0.138,-0.064 0.245,-0.179 0.298,-0.321c0.047,-0.143 0.038,-0.299 -0.025,-0.436c-0.063,-0.136 -0.177,-0.243 -0.317,-0.299l-10.367,-3.767c-0.07,-0.025 -0.144,-0.036 -0.218,-0.032c-0.074,0.003 -0.147,0.022 -0.214,0.053c-0.067,0.032 -0.127,0.077 -0.177,0.132c-0.05,0.054 -0.088,0.119 -0.113,0.188z">
			</path>
			<path d="M157.237,127.39c0,0.101 0.027,0.2 0.077,0.287c0.051,0.088 0.124,0.161 0.211,0.211l9.541,5.512c0.133,0.076 0.29,0.097 0.438,0.058c0.147,-0.04 0.273,-0.136 0.35,-0.268c0.073,-0.133 0.092,-0.289 0.052,-0.436c-0.039,-0.146 -0.133,-0.272 -0.262,-0.351l-9.554,-5.499c-0.064,-0.038 -0.135,-0.063 -0.208,-0.074c-0.073,-0.01 -0.148,-0.007 -0.22,0.012c-0.072,0.018 -0.14,0.05 -0.199,0.095c-0.06,0.044 -0.11,0.1 -0.147,0.164c-0.051,0.088 -0.078,0.187 -0.079,0.289z">
			</path>
			<path d="M149.416,137.916c-0.002,0.082 0.014,0.164 0.048,0.239c0.035,0.075 0.086,0.142 0.149,0.194l8.452,7.087c0.052,0.053 0.115,0.094 0.184,0.123c0.068,0.029 0.142,0.043 0.216,0.043c0.075,0 0.148,-0.014 0.217,-0.043c0.069,-0.029 0.131,-0.07 0.184,-0.123c0.095,-0.116 0.141,-0.264 0.129,-0.414c-0.012,-0.149 -0.082,-0.288 -0.195,-0.387l-8.452,-7.087c-0.052,-0.052 -0.115,-0.094 -0.183,-0.123c-0.069,-0.028 -0.143,-0.043 -0.217,-0.043c-0.074,0 -0.148,0.015 -0.217,0.043c-0.068,0.029 -0.131,0.071 -0.183,0.123c-0.087,0.103 -0.134,0.233 -0.132,0.368z">
			</path>
			<path d="M139.864,146.957c0.002,0.135 0.054,0.266 0.144,0.367l7.074,8.452c0.11,0.104 0.255,0.162 0.407,0.162c0.151,0 0.297,-0.058 0.407,-0.162c0.112,-0.099 0.182,-0.238 0.194,-0.387c0.013,-0.15 -0.034,-0.298 -0.129,-0.414l-7.087,-8.451c-0.107,-0.104 -0.251,-0.162 -0.4,-0.162c-0.149,0 -0.292,0.058 -0.4,0.162c-0.064,0.053 -0.115,0.119 -0.151,0.194c-0.036,0.074 -0.056,0.156 -0.059,0.239z">
			</path>
			<path d="M128.925,154.137c0.001,0.101 0.028,0.201 0.078,0.289l5.512,9.593c0.037,0.065 0.086,0.122 0.145,0.168c0.059,0.046 0.127,0.079 0.199,0.099c0.072,0.019 0.147,0.024 0.221,0.015c0.074,-0.01 0.145,-0.034 0.21,-0.072c0.132,-0.077 0.228,-0.203 0.267,-0.35c0.04,-0.148 0.019,-0.305 -0.057,-0.437l-5.512,-9.541c-0.037,-0.065 -0.086,-0.122 -0.145,-0.168c-0.059,-0.046 -0.127,-0.079 -0.199,-0.099c-0.072,-0.019 -0.147,-0.024 -0.221,-0.015c-0.074,0.01 -0.145,0.034 -0.21,0.072c-0.08,0.046 -0.148,0.11 -0.198,0.188c-0.051,0.077 -0.081,0.166 -0.09,0.258z">
			</path>
			<path d="M116.896,159.332c-0.013,0.065 -0.013,0.132 0,0.197l3.832,10.355c0.053,0.142 0.16,0.257 0.297,0.321c0.138,0.064 0.295,0.071 0.438,0.02c0.071,-0.025 0.137,-0.064 0.193,-0.115c0.056,-0.05 0.101,-0.112 0.133,-0.18c0.032,-0.069 0.05,-0.143 0.052,-0.219c0.003,-0.075 -0.01,-0.15 -0.037,-0.221l-3.766,-10.355c-0.054,-0.142 -0.161,-0.257 -0.298,-0.321c-0.138,-0.064 -0.295,-0.071 -0.437,-0.02c-0.117,0.034 -0.22,0.105 -0.293,0.202c-0.073,0.097 -0.113,0.215 -0.114,0.336z">
			</path>
			<path d="M104.12,162.363v0.105l1.916,10.854c0.013,0.073 0.04,0.143 0.08,0.206c0.039,0.063 0.091,0.117 0.152,0.16c0.061,0.042 0.13,0.073 0.203,0.089c0.073,0.016 0.148,0.017 0.221,0.004c0.074,-0.011 0.145,-0.037 0.209,-0.077c0.064,-0.039 0.119,-0.091 0.162,-0.152c0.043,-0.062 0.073,-0.131 0.088,-0.205c0.015,-0.073 0.016,-0.149 0,-0.222l-1.903,-10.854c-0.029,-0.137 -0.107,-0.259 -0.219,-0.343c-0.113,-0.084 -0.252,-0.124 -0.392,-0.113c-0.14,0.011 -0.271,0.073 -0.368,0.174c-0.098,0.101 -0.156,0.234 -0.162,0.374z">
			</path>
			<path d="M95.3178,1.70405v11.02395c0,0.1531 0.0608,0.3 0.1691,0.4083c0.1083,0.1083 0.2552,0.1691 0.4083,0.1691c0.1509,-0.0034 0.2944,-0.0658 0.3999,-0.1737c0.1055,-0.1079 0.1645,-0.2528 0.1645,-0.4037v-11.02395c0,-0.14967 -0.0595,-0.29321 -0.1653,-0.39904c-0.1058,-0.10584 -0.2494,-0.16529 -0.3991,-0.16529c-0.1509,-0.00004 -0.2957,0.05899 -0.4037,0.16446c-0.1079,0.10547 -0.1702,0.24901 -0.1737,0.39987z">
			</path>
			<path d="M108.352,14.2508c0.001,0.1327 0.049,0.2608 0.136,0.3616c0.086,0.1008 0.205,0.1679 0.336,0.1896c0.074,0.015 0.15,0.015 0.223,-0.0002c0.073,-0.0152 0.143,-0.0452 0.204,-0.0882c0.062,-0.043 0.114,-0.0981 0.153,-0.1619c0.04,-0.0637 0.066,-0.1349 0.076,-0.2091l1.917,-10.85331c0.015,-0.07344 0.015,-0.14918 -0.001,-0.2226c-0.015,-0.07342 -0.045,-0.14298 -0.088,-0.2044c-0.043,-0.06142 -0.098,-0.11343 -0.162,-0.15283c-0.063,-0.03941 -0.135,-0.0654 -0.209,-0.07636c-0.149,-0.0269 -0.303,0.00623 -0.429,0.09222c-0.125,0.08598 -0.211,0.21789 -0.24,0.36712l-1.903,10.85336z">
			</path>
			<path d="M120.913,18.0087c0.003,0.1173 0.041,0.2312 0.108,0.327c0.068,0.0958 0.163,0.1693 0.273,0.211c0.144,0.0503 0.303,0.0413 0.44,-0.0251c0.138,-0.0665 0.244,-0.1849 0.295,-0.3292l3.766,-10.35464c0.025,-0.07066 0.036,-0.14555 0.032,-0.2204c-0.004,-0.07484 -0.023,-0.14817 -0.055,-0.21581c-0.032,-0.06763 -0.078,-0.12825 -0.133,-0.17838c-0.056,-0.05013 -0.121,-0.0888 -0.192,-0.11379c-0.07,-0.02499 -0.145,-0.03581 -0.22,-0.03186c-0.075,0.00396 -0.148,0.02262 -0.216,0.05491c-0.068,0.0323 -0.128,0.07759 -0.178,0.13331c-0.05,0.05572 -0.089,0.12076 -0.114,0.19142l-3.767,10.35464c-0.025,0.0625 -0.039,0.1293 -0.039,0.1969z">
			</path>
			<path d="M132.644,23.8834c-0.001,0.0981 0.024,0.1949 0.072,0.2802c0.048,0.0854 0.119,0.1563 0.204,0.2053c0.132,0.0763 0.289,0.097 0.437,0.0576c0.148,-0.0393 0.274,-0.1355 0.35,-0.2676l5.512,-9.5409c0.038,-0.0645 0.062,-0.1358 0.072,-0.2098c0.009,-0.074 0.004,-0.1491 -0.015,-0.2212c-0.02,-0.072 -0.053,-0.1394 -0.099,-0.1983c-0.046,-0.059 -0.103,-0.1082 -0.168,-0.145c-0.132,-0.0762 -0.289,-0.097 -0.437,-0.0576c-0.147,0.0393 -0.273,0.1356 -0.35,0.2676l-5.512,9.5409c-0.042,0.0906 -0.064,0.189 -0.066,0.2888z">
			</path>
			<path d="M143.168,31.7041c-0.001,0.1164 0.034,0.2304 0.1,0.3262c0.066,0.0958 0.16,0.1688 0.269,0.2091c0.11,0.0402 0.229,0.0457 0.341,0.0157c0.113,-0.0301 0.213,-0.0941 0.288,-0.1835l7.087,-8.4517c0.051,-0.0563 0.09,-0.1224 0.116,-0.1944c0.025,-0.072 0.035,-0.1483 0.03,-0.2244c-0.005,-0.0761 -0.026,-0.1503 -0.061,-0.2182c-0.034,-0.0679 -0.082,-0.1281 -0.141,-0.1769c-0.059,-0.0488 -0.126,-0.0853 -0.2,-0.1071c-0.073,-0.0219 -0.149,-0.0287 -0.225,-0.0201c-0.076,0.0086 -0.149,0.0325 -0.215,0.0702c-0.067,0.0377 -0.125,0.0884 -0.171,0.1491l-7.086,8.4386c-0.088,0.1024 -0.134,0.233 -0.132,0.3674z">
			</path>
			<path d="M152.213,41.236c-0.002,0.1344 0.045,0.2651 0.132,0.3675c0.047,0.0582 0.105,0.1065 0.171,0.1421c0.066,0.0355 0.138,0.0576 0.212,0.0649c0.075,0.0074 0.15,-0.0002 0.222,-0.0222c0.071,-0.0221 0.138,-0.0581 0.195,-0.1061l8.439,-7.0868c0.057,-0.0474 0.105,-0.1057 0.14,-0.1716c0.036,-0.0658 0.058,-0.138 0.065,-0.2123c0.007,-0.0744 0,-0.1494 -0.022,-0.2209c-0.022,-0.0715 -0.057,-0.138 -0.105,-0.1957c-0.047,-0.0578 -0.105,-0.1056 -0.171,-0.1408c-0.066,-0.0352 -0.138,-0.0571 -0.212,-0.0644c-0.075,-0.0073 -0.15,0.0001 -0.221,0.0218c-0.072,0.0217 -0.138,0.0572 -0.196,0.1046l-8.452,7.0868c-0.062,0.0535 -0.112,0.12 -0.146,0.1948c-0.034,0.0748 -0.051,0.1562 -0.051,0.2383z">
			</path>
			<path d="M159.374,52.1873c0.002,0.1013 0.029,0.2006 0.079,0.2887c0.079,0.1295 0.205,0.2235 0.352,0.2626c0.146,0.0391 0.302,0.0203 0.435,-0.0526l9.541,-5.5119c0.071,-0.0351 0.134,-0.0844 0.185,-0.1447c0.051,-0.0603 0.089,-0.1304 0.112,-0.206c0.022,-0.0756 0.029,-0.1551 0.02,-0.2335c-0.009,-0.0784 -0.034,-0.1541 -0.074,-0.2225c-0.039,-0.0683 -0.092,-0.1278 -0.156,-0.1748c-0.063,-0.0469 -0.136,-0.0804 -0.213,-0.0983c-0.076,-0.0179 -0.156,-0.0198 -0.234,-0.0056c-0.078,0.0141 -0.151,0.0441 -0.217,0.088l-9.541,5.5119c-0.088,0.0506 -0.16,0.1233 -0.211,0.2108c-0.051,0.0875 -0.078,0.1868 -0.078,0.2879z">
			</path>
			<path d="M164.579,64.2806v0.1968c0.053,0.142 0.16,0.2574 0.298,0.3212c0.137,0.0638 0.294,0.071 0.437,0.0201l10.355,-3.7666c0.08,-0.0183 0.155,-0.0534 0.22,-0.103c0.065,-0.0495 0.119,-0.1124 0.158,-0.1844c0.039,-0.072 0.062,-0.1514 0.068,-0.2331c0.006,-0.0817 -0.005,-0.1637 -0.033,-0.2406c-0.028,-0.0769 -0.073,-0.147 -0.13,-0.2055c-0.057,-0.0586 -0.126,-0.1042 -0.203,-0.134c-0.076,-0.0298 -0.158,-0.043 -0.239,-0.0388c-0.082,0.0042 -0.162,0.0258 -0.235,0.0633l-10.355,3.7665c-0.103,0.0463 -0.19,0.122 -0.251,0.2177c-0.061,0.0957 -0.092,0.2071 -0.09,0.3204z">
			</path>
			<path d="M167.609,76.9817v0.105c0.028,0.1492 0.115,0.2812 0.24,0.3671c0.125,0.086 0.279,0.1192 0.429,0.0922l10.853,-1.916c0.148,-0.0261 0.28,-0.1099 0.366,-0.233c0.086,-0.123 0.12,-0.2753 0.093,-0.4232c-0.026,-0.1479 -0.109,-0.2794 -0.232,-0.3656c-0.124,-0.0861 -0.276,-0.1198 -0.424,-0.0937l-10.853,1.9029c-0.131,0.0267 -0.249,0.0971 -0.335,0.1996c-0.086,0.1025 -0.134,0.2311 -0.137,0.3647z">
			</path>
		</g>
	</g>
</svg>