<svg version="1.1" xmlns="http://www.w3.org/2000/svg" xmlns:xlink="http://www.w3.org/1999/xlink" width="783" height="90" viewBox="0,0,256,29.42188"><defs><clipPath id="clip-1"><rect x="0" y="0" width="783" height="90" id="clip0_10_118" stroke="none" stroke-width="1"></rect></clipPath><clipPath id="clip-2"><rect x="-55" y="1" width="887" height="88" id="clip1_10_118" stroke="none" stroke-width="1"></rect></clipPath></defs><g fill="none" fill-rule="nonzero" stroke="none" stroke-width="none" stroke-linecap="butt" stroke-linejoin="miter" stroke-miterlimit="10" stroke-dasharray="" stroke-dashoffset="0" font-family="none" font-weight="none" font-size="none" text-anchor="none" style="mix-blend-mode: normal"><g transform="translate(0,-0.00171) scale(0.32695,0.32695)"><g clip-path="url(#clip-1)"><g clip-path="url(#clip-2)"><path d="M-54.3181,32.1919c24.4588,0 29.4588,55.64 53.91772,55.64c24.45888,0 24.39108,-85.64001 48.84948,-85.64001c24.459,0 24.459,85.64001 48.918,85.64001c24.4589,0 24.4589,-85.64001 48.9859,-85.64001c24.526,0 24.459,85.64001 48.917,85.64001c24.459,0 24.459,-85.64001 48.918,-85.64001c24.459,0 24.527,85.64001 48.986,85.64001c24.458,0 24.458,-85.64001 48.917,-85.64001c24.459,0 24.527,85.64001 48.986,85.64001c24.459,0 24.459,-85.64001 48.918,-85.64001c24.459,0 24.526,85.64001 48.985,85.64001c24.459,0 24.459,-85.64001 48.918,-85.64001c24.459,0 24.459,85.64001 48.985,85.64001c24.527,0 24.459,-85.64001 48.918,-85.64001c24.459,0 24.527,85.64001 48.986,85.64001c24.458,0 24.729,-85.64001 48.985,-85.64001c24.256,0 24.527,85.64001 48.986,85.64001c24.458,0 24.526,-85.64001 48.714,-85.64001" stroke="#ffb921" stroke-width="2"></path></g></g></g></g></svg>